<svg width="20" height="21" viewBox="0 0 20 21" fill="none" xmlns="http://www.w3.org/2000/svg">
<path opacity="0.4" d="M14.0737 0.904297H17.4596C18.8619 0.904297 19.9982 2.05015 19.9982 3.46426V6.87882C19.9982 8.29293 18.8619 9.43878 17.4596 9.43878H14.0737C12.6714 9.43878 11.5352 8.29293 11.5352 6.87882V3.46426C11.5352 2.05015 12.6714 0.904297 14.0737 0.904297Z" fill="white"/>
<path fill-rule="evenodd" clip-rule="evenodd" d="M2.53852 0.904297H5.92449C7.32676 0.904297 8.46301 2.05015 8.46301 3.46426V6.87882C8.46301 8.29293 7.32676 9.43878 5.92449 9.43878H2.53852C1.13626 9.43878 0 8.29293 0 6.87882V3.46426C0 2.05015 1.13626 0.904297 2.53852 0.904297ZM2.53852 12.3691H5.92449C7.32676 12.3691 8.46301 13.515 8.46301 14.9291V18.3437C8.46301 19.7568 7.32676 20.9036 5.92449 20.9036H2.53852C1.13626 20.9036 0 19.7568 0 18.3437V14.9291C0 13.515 1.13626 12.3691 2.53852 12.3691ZM17.4596 12.3691H14.0737C12.6714 12.3691 11.5352 13.515 11.5352 14.9291V18.3437C11.5352 19.7568 12.6714 20.9036 14.0737 20.9036H17.4596C18.8619 20.9036 19.9982 19.7568 19.9982 18.3437V14.9291C19.9982 13.515 18.8619 12.3691 17.4596 12.3691Z" fill="white"/>
</svg>
